<svg width="202" height="136" viewBox="0 0 202 136" fill="none" xmlns="http://www.w3.org/2000/svg">
<g clip-path="url(#clip0_201_127)">
<path d="M37.2553 59.6352C42.8288 56.5313 46.483 52.4698 46.1385 48.2431C45.5971 41.7932 37.6736 36.9171 24.5211 37.7977C24.3735 37.7977 24.2381 37.8197 24.0905 37.8307C30.4391 23.4118 41.6846 1.36518 50.6416 2.22371C55.3416 2.69701 58.5036 9.6423 60.2015 15.3438C59.7954 15.7951 59.4633 16.6426 58.9834 18.2386C57.9253 21.7498 58.1468 22.069 57.507 23.8411C57.1256 24.8977 56.3751 26.989 54.5664 29.1133C53.5083 30.3571 52.9054 30.6433 51.9827 32.0852C51.146 33.384 50.6293 34.1985 50.5063 35.3762C50.3955 36.3888 50.6539 37.0382 50.1371 38.0068C49.9034 38.4361 49.6327 38.7333 49.768 38.9974C50.0141 39.4707 51.3552 39.3496 51.6136 39.3276C54.2588 39.0525 56.0552 36.8071 56.3997 36.3668C57.8146 34.5287 58.0853 32.7015 58.2452 32.7456C58.3805 32.7786 57.8884 34.1654 57.8761 36.0366C57.8761 36.9942 57.8638 38.4581 58.6143 39.988C58.8112 40.3733 60.386 43.5873 63.0313 43.6093C64.5938 43.6313 65.7504 42.5196 66.3532 41.9583C67.9281 40.4613 68.2603 38.6232 68.5679 37.0162C68.9247 35.057 68.8263 33.395 68.937 33.395C69.0723 33.395 68.6663 35.7284 70.0443 37.6766C71.1639 39.2616 73.3417 40.4503 74.0922 39.988C75.4087 39.1735 72.3451 33.3509 71.5084 31.7439C69.749 28.3869 67.4606 25.4811 67.4606 25.4811C65.209 22.5423 64.1632 21.8929 63.9541 20.0437C63.7695 18.3267 64.4954 17.259 63.5849 16.0923C63.3635 15.8171 63.0682 15.5529 62.736 15.3548C61.075 9.4882 57.4824 0.693769 50.9246 0.0443677C42.4966 -0.803156 32.826 11.6565 21.3345 38.1059C5.29064 40.0761 0.0124063 47.99 0.0124063 47.99C-0.221362 49.2227 2.43621 51.8864 5.27833 51.6993C6.22571 51.6332 10.3228 49.5419 10.8765 48.9586C11.061 48.7605 10.5443 48.2541 10.7288 48.056C12.845 45.7886 15.8717 43.103 23.0201 42.6297C30.3653 42.1344 34.4993 45.3153 34.8438 49.4759C35.2006 53.7575 32.0017 56.8835 26.4774 58.9528L24.2504 59.1069C25.0871 53.7796 25.8622 49.1127 26.4774 46.8343C23.5245 45.5135 17.139 44.6659 15.355 48.4303C13.94 51.8644 11.2948 67.2629 9.67071 79.4364C6.70555 78.842 4.61394 78.2036 4.20792 78.1596C2.26396 80.9003 1.83333 83.7731 4.86001 85.1489C5.63514 85.4571 7.07465 85.7323 8.85867 85.9084C8.80946 86.1506 8.76024 86.4037 8.78485 86.6459C9.36312 87.0311 14.2599 88.8912 17.5696 88.7922C19.2675 88.7922 20.2026 88.6161 20.5717 86.5248C20.5717 86.4037 20.6086 86.2166 20.6086 86.0955L22.4295 85.9744C35.7789 85.0829 49.7803 79.1172 48.9806 69.5193C48.55 64.3351 43.8008 61.011 37.243 59.6352M21.3468 80.2179C21.9374 75.9362 22.6264 70.3118 23.4507 64.7974C30.0331 63.9939 35.5574 66.1072 35.9019 70.2677C36.4802 77.147 28.2122 79.5795 21.3468 80.2179Z" fill="white"/>
<path d="M68.5925 70.2787C67.8789 72.5902 66.5255 75.0777 64.3108 75.2318C63.4988 75.2868 62.6745 74.3733 62.6498 72.4361C62.576 68.3746 65.0367 57.9621 66.2056 53.2732C67.1037 50.2354 58.4051 49.1897 56.3873 49.3218C55.7106 49.3658 54.8494 49.5419 54.6279 50.2244C52.8931 54.6491 49.5589 68.3305 50.0018 73.5147C50.4939 79.4254 54.8371 81.9239 61.3088 81.4947C65.2951 81.2305 68.9247 79.6015 71.5207 77.5102C74.855 80.9113 80.5638 82.5073 85.9036 82.1551C93.987 81.6157 98.6009 77.5212 100.496 73.4377C103.338 76.4646 108.075 77.8844 114.522 77.4552C127.404 76.5967 130.246 59.4811 129.815 54.4179C129.348 48.8045 123.22 43.5763 117.278 43.9725C113.71 44.2146 111.876 46.6361 109.822 49.685C110.585 45.8767 113.414 36.653 114.337 33.9233C114.202 32.2393 108.087 30.5222 104.826 31.2817C103.129 31.6889 96.7553 54.1978 97.3828 65.3477C96.7923 65.2927 96.1771 65.2707 95.5373 65.3147C94.4546 65.3917 93.7533 65.9201 93.7533 65.9201C93.3596 69.3982 90.0622 76.1124 83.7259 76.5416C81.2282 76.7067 79.6411 75.54 79.395 72.5902C79.0505 68.4296 80.207 65.3147 80.2686 65.1936C80.4285 65.4248 82.3971 67.9013 86.2973 67.6371C90.6774 67.3399 95.365 60.967 94.7253 53.2512C94.1716 46.6141 86.7402 44.5008 82.8277 44.765C72.9972 45.4254 68.0757 59.437 68.5802 70.2787M109.01 61.7485L110.265 62.2108C110.326 62.2108 110.929 62.0457 110.929 61.9796C110.929 58.7656 113.624 49.608 116.995 49.3878C118.41 49.2888 118.41 50.9288 118.471 52.5028C118.459 53.1081 117.634 70.9281 111.507 71.3464C109.822 71.4565 108.53 69.7834 108.493 67.7252C108.444 63.9718 109.01 61.7485 109.01 61.7485ZM83.9104 50.9948C84.2426 50.1803 84.501 49.9822 84.7717 49.9712C85.1039 49.9492 85.5345 50.1583 85.6575 52.4037C85.9282 56.5092 84.6486 62.1777 82.4217 62.3208C81.2036 62.3979 80.8345 61.1541 80.8345 61.1541C81.2528 58.0282 82.6678 53.9337 83.9227 51.0058" fill="white"/>
<path d="M137.148 88.5605C139.092 88.4284 140.851 87.6579 142.143 86.6453C142.623 87.6579 143.472 88.2523 144.961 88.1532C146.671 88.0431 147.643 87.4268 147.643 87.4268C147.569 84.9833 148.947 80.7787 150.165 78.3351L150.534 78.3131C150.276 79.656 149.845 82.2646 149.882 83.4093C149.919 85.5226 151.297 87.757 155.492 87.4818C159.159 87.2396 161.164 84.2018 161.054 82.903C160.894 81.0428 158.433 81.417 158.433 81.417C158.224 82.1325 157.436 84.51 156.427 84.576C155.554 84.631 155.123 83.9926 155.025 82.6718C154.767 79.5459 156.563 74.791 156.809 71.632C156.87 70.6634 153.352 69.8929 151.937 69.992C151.063 70.047 150.719 70.4323 150.608 70.6854C148.959 73.6132 147.877 76.7942 146.732 79.777H146.597C146.585 77.2125 147.126 74.7359 147.692 72.1823C147.84 71.5109 145.773 71.0376 144.555 71.1257C142.635 71.2578 141.516 76.0347 141.516 81.351C141.282 81.351 141.11 81.362 141.11 81.362C141.023 82.3967 140.359 85.3135 138.637 85.4235C138.231 85.4455 137.825 84.9943 137.812 84.0257C137.775 82.0004 139.006 76.8052 139.584 74.4718C140.039 72.9638 135.696 72.4355 134.687 72.5015C134.355 72.5236 133.924 72.6116 133.814 72.9528C132.952 75.1542 131.291 81.9784 131.5 84.565C131.747 87.5148 133.912 88.7586 137.136 88.5385" fill="white"/>
<path d="M137.05 70.906C140.876 70.6528 141.983 68.4294 141.885 67.2847C141.799 66.3161 140.864 65.9969 139.929 65.7548C140.273 64.577 139.313 64.434 137.763 64.544C134.736 64.7421 134.183 67.802 134.269 68.8257C134.404 70.4217 136.041 70.972 137.05 70.906Z" fill="white"/>
<path d="M86.8754 106.843C92.4489 103.739 96.1031 99.6771 95.7586 95.4505C95.2172 89.0005 87.2937 84.1355 74.1412 85.0051C55.5998 86.2488 49.6325 95.1974 49.6325 95.1974C49.3988 96.4301 52.0563 99.1048 54.8984 98.9067C55.8458 98.8406 59.9429 96.7493 60.4966 96.166C60.6811 95.9678 60.1644 95.4615 60.3489 95.2634C62.4651 92.996 65.4918 90.3103 72.6402 89.8371C79.9854 89.3417 84.1194 92.5227 84.4639 96.6833C84.8207 100.965 81.6218 104.091 76.0975 106.16L73.8706 106.303C74.7072 100.976 75.47 96.3091 76.0975 94.0306C73.1446 92.7098 66.7591 91.8623 64.9751 95.6266C63.5602 99.0607 60.9149 114.459 59.2908 126.633C56.3257 126.038 54.2341 125.389 53.828 125.356C51.8841 128.097 51.4534 130.969 54.4801 132.345C55.2553 132.654 56.6948 132.929 58.4788 133.105C58.4296 133.347 58.3804 133.6 58.405 133.842C58.9832 134.227 63.8801 136.088 67.1897 135.989C68.8876 135.989 69.8227 135.812 70.1918 133.721C70.1918 133.6 70.2287 133.413 70.2287 133.292L72.0496 133.171C85.399 132.279 99.4005 126.314 98.6007 116.716C98.1701 111.531 93.4209 108.207 86.8631 106.832M70.9669 127.436C71.5575 123.155 72.2465 117.53 73.0708 112.016C79.6532 111.212 85.1775 113.326 85.522 117.486C86.1003 124.365 77.8323 126.798 70.9669 127.436Z" fill="white"/>
<path d="M107.976 81.0542C107.435 81.0872 106.635 81.2083 106.475 81.7036C103.694 92.2591 101.148 112.016 100.975 121.427C100.938 123.375 100.68 126.061 101.295 126.864C101.923 127.855 111.532 130.067 112.516 128.967C112.516 127.327 112.578 125.687 112.651 124.047C112.897 110.806 114.928 96.8489 117.573 83.8719C117.819 82.7602 110.474 80.8891 107.988 81.0542" fill="white"/>
<path d="M134.416 93.36C132.19 93.5141 130.775 94.3947 130.775 94.3947C130.393 93.8113 129.335 93.338 127.945 93.0078C121.227 94.6038 115.407 105.192 115.53 113.183C115.752 119.963 120.575 128.131 131.771 127.382C145.453 126.468 148.283 111.598 148.184 104.818C147.926 98.4672 145.674 92.6116 134.416 93.371M137.443 103.585C137.357 106.689 135.708 121.042 130.258 121.405C127.76 121.57 126.554 118.378 126.678 114.251C126.653 112.314 127.071 110.773 127.071 110.773C127.367 111.059 128.745 111.323 128.794 111.147C129.286 108.076 131.956 98.6213 135.388 98.3901C137.751 98.236 137.443 101.945 137.455 103.585" fill="white"/>
<path d="M195.725 109.154C195.553 111.223 194.212 117.079 190.779 117.31C189.967 117.365 189.143 116.452 189.118 114.515C189.044 110.453 191.505 100.041 192.674 95.3517C193.572 92.3138 184.873 91.2682 182.856 91.4003C182.179 91.4443 181.318 91.6204 181.096 92.3028C179.78 95.6489 177.565 104.3 176.741 110.563C176.187 110.519 175.621 110.497 175.03 110.541C173.948 110.618 173.246 111.146 173.246 111.146C172.853 114.625 169.555 121.339 163.219 121.768C160.721 121.933 159.134 120.766 158.888 117.817C158.544 113.656 159.7 110.541 159.762 110.42C159.909 110.651 161.89 113.128 165.79 112.864C170.171 112.566 174.858 106.193 174.218 98.4776C173.665 91.8405 166.233 89.7272 162.321 89.9914C152.146 90.6738 147.224 105.676 148.147 116.65C148.775 124.19 157.498 127.91 165.384 127.381C171.967 126.941 176.249 124.145 178.635 120.92C180.604 123.001 183.778 123.848 187.777 123.584C195.799 123.045 202.344 117.035 201.988 112.753C201.643 108.593 195.725 109.165 195.725 109.165M163.391 96.2102C163.723 95.3957 163.982 95.1976 164.253 95.1866C164.585 95.1646 165.015 95.3737 165.126 97.6191C165.397 101.725 164.117 107.393 161.89 107.536C160.672 107.613 160.303 106.369 160.303 106.369C160.721 103.244 162.136 99.149 163.391 96.2212" fill="white"/>
<path d="M187.605 88.164C195.295 87.6467 197.497 83.2 197.3 80.9106C197.14 78.9844 195.258 78.324 193.388 77.8397C194.077 75.4842 192.145 75.198 189.044 75.3961C182.979 75.8034 181.859 81.9452 182.031 83.9925C182.302 87.1844 185.575 88.3071 187.605 88.164Z" fill="white"/>
</g>
<defs>
<clipPath id="clip0_201_127">
<rect width="202" height="136" fill="white"/>
</clipPath>
</defs>
</svg>
